<svg xmlns="http://www.w3.org/2000/svg" width="470" height="470" viewBox="0 0 470 470" version="1.1"><path d="M 225.742 75.594 C 200.388 79.552, 175.785 89.430, 155.647 103.739 C 146.446 110.276, 126.713 129.350, 122.500 135.779 C 119.778 139.932, 119.752 140.099, 121.598 141.495 C 122.644 142.285, 123.764 142.835, 124.086 142.716 C 124.408 142.597, 127.440 139.267, 130.825 135.316 C 145.050 118.711, 160.064 107.002, 179.866 97.066 C 236.955 68.423, 304.632 79.381, 351.381 124.837 C 378.538 151.244, 393.738 184.385, 396.491 223.193 C 397.109 231.906, 397.419 233.044, 399.554 234.443 C 400.861 235.300, 402.235 236, 402.607 236 C 403.927 236, 402.032 210.361, 400.020 201 C 392.016 163.764, 370.129 129.236, 340 106.314 C 307.693 81.735, 263.140 69.756, 225.742 75.594 M 112.852 313.235 C 121.581 327.023, 136.206 343.561, 148.669 353.740 C 166.044 367.931, 190.343 379.626, 214 385.182 C 226.471 388.111, 256.281 388.843, 269.962 386.555 C 313.108 379.340, 351.703 354.491, 375.658 318.500 C 381.653 309.493, 381.529 310, 377.736 310 C 374.655 310, 373.914 310.648, 369.437 317.250 C 362.717 327.161, 343.471 346.191, 332.237 354.034 C 314.268 366.578, 295.235 374.634, 272.878 379.161 C 259.113 381.948, 234.627 382.166, 221.500 379.618 C 203.383 376.103, 191.046 371.818, 176 363.818 C 154.841 352.567, 134.191 334.106, 121.113 314.750 C 118.294 310.578, 117.472 310, 114.354 310 L 110.804 310 112.852 313.235" stroke="none" fill="#643213" fill-rule="evenodd"/><path d="M 416.626 131.250 C 412.629 146.198, 411.871 152.735, 411.317 177 C 410.753 201.754, 411.217 208.245, 414.627 223.250 C 415.470 226.963, 416.529 230, 416.980 230 C 420.449 230, 421.563 200.964, 419.109 174.500 C 417.783 160.191, 418.060 134.715, 419.618 127.750 C 419.960 126.220, 419.804 125, 419.265 125 C 418.733 125, 417.545 127.813, 416.626 131.250 M 72.466 143.376 C 56.128 146.059, 42.785 152.189, 33.716 161.177 C 25.811 169.010, 22.484 176.259, 22.551 185.500 C 22.615 194.108, 25.378 200.402, 32.060 207.156 C 40.762 215.951, 51.035 221.480, 80.964 233.476 C 92.259 238.003, 104.606 243.228, 108.402 245.087 L 115.304 248.466 107.402 250.201 C 69.496 258.521, 56.460 266.363, 65.750 275.259 C 74.483 283.623, 95.771 285.799, 111.453 279.932 C 117.443 277.690, 125.268 271.316, 127.626 266.757 C 129.681 262.782, 129.707 256.267, 127.682 252.353 L 126.055 249.206 137.278 247.173 C 143.450 246.055, 150.188 244.863, 152.250 244.524 C 154.313 244.186, 156 243.480, 156 242.955 C 156 242.430, 155.854 242, 155.676 242 C 154.475 242, 133.555 245.230, 129.469 246.046 L 124.437 247.051 116.247 241.662 C 111.491 238.534, 101.231 233.443, 91.778 229.523 C 55.328 214.407, 39.566 204.928, 34.912 195.324 C 28.287 181.649, 36.139 167.559, 55.500 158.381 C 77.036 148.173, 108.019 147.354, 124.911 156.548 C 132.144 160.485, 139.237 168.345, 141.844 175.313 C 143.030 178.482, 144 181.733, 144 182.538 C 144 183.342, 144.511 184, 145.136 184 C 146.762 184, 145.492 175.900, 142.973 170.205 C 137.478 157.784, 126.898 149.180, 112 145.015 C 102.367 142.323, 83.615 141.545, 72.466 143.376 M 230.900 176.175 C 226.011 179.702, 225.567 180.196, 220.321 187.944 C 214.950 195.877, 211.139 206.621, 209.261 219.119 C 206.707 236.117, 209.177 251.419, 216.029 261.040 C 220.649 267.529, 232.480 271.681, 242.750 270.416 C 250.191 269.500, 249.262 268.001, 241.250 267.994 C 231.292 267.986, 227.204 266.526, 221.934 261.095 C 215.844 254.817, 214.499 249.914, 214.504 234 C 214.507 223.699, 214.919 220.188, 216.846 214.043 C 221.468 199.297, 229.262 186.985, 236.265 183.363 C 241.651 180.578, 242.376 181.837, 241.682 192.776 C 240.635 209.267, 236.016 222.339, 225.586 238.330 C 222.419 243.187, 220.082 247.415, 220.393 247.726 C 221.247 248.580, 229.785 240.441, 236.078 232.773 C 245.335 221.496, 249.715 211.115, 251.993 195.047 C 253.361 185.401, 252.466 180.636, 248.492 176.423 C 245.656 173.416, 244.659 173, 240.282 173 C 236.276 173, 234.438 173.622, 230.900 176.175 M 325.835 238.032 C 324.920 238.567, 321.915 243.166, 319.159 248.252 C 316.403 253.338, 313.454 258.400, 312.606 259.500 C 311.162 261.372, 311.062 261.131, 311.032 255.750 C 310.990 248.131, 309.389 248.411, 308.337 256.220 L 307.500 262.440 303.215 263.286 C 296.911 264.530, 291.984 261.900, 290.030 256.248 C 289.214 253.888, 287.739 251.735, 286.716 251.410 C 285.545 251.038, 281.707 252.638, 276.186 255.798 C 266.270 261.476, 263 262.738, 263 260.887 C 263 259.073, 271.453 251.487, 275.743 249.452 C 280.359 247.261, 287.498 246.379, 288.429 247.885 C 288.808 248.498, 289.757 249, 290.538 249 C 291.662 249, 291.736 248.515, 290.893 246.665 C 287.062 238.256, 268.736 239.542, 259.638 248.859 C 253.234 255.417, 252.006 263.034, 256.543 268.048 C 260.552 272.478, 267.239 270.764, 278.063 262.532 L 284.029 257.995 288.343 262.498 C 292.117 266.436, 293.184 267, 296.861 267 C 299.173 267, 302.625 266.348, 304.532 265.551 C 307.926 264.133, 308 264.153, 308 266.492 C 308 271.006, 310.232 270.525, 315.254 264.928 C 317.932 261.942, 321.745 257.062, 323.726 254.083 L 327.328 248.666 328.537 252.759 C 332.169 265.060, 341.778 272.483, 350.893 270.029 C 356.507 268.517, 356.776 267.283, 351.780 265.957 C 344.775 264.098, 341.342 259.820, 337.546 248.219 C 335.596 242.256, 331.645 236.985, 329.161 237.030 C 328.247 237.047, 326.751 237.498, 325.835 238.032 M 371.192 243.144 C 364.687 245.643, 359.787 250.372, 357.501 256.358 C 355.850 260.680, 355.856 261.040, 357.638 264.688 C 361.506 272.607, 367.198 272.294, 379.470 263.489 L 387.069 258.037 391.363 262.519 C 395.099 266.418, 396.196 267, 399.808 267 C 404.190 267, 412 264.384, 412 262.916 C 412 262.440, 410.538 262.376, 408.750 262.775 C 403.686 263.905, 398.369 263.551, 396.437 261.955 C 395.468 261.155, 393.815 258.561, 392.764 256.191 C 391.714 253.820, 390.229 251.642, 389.466 251.349 C 388.703 251.056, 384.580 252.770, 380.303 255.158 C 370.167 260.818, 366 262.384, 366 260.533 C 366 258.501, 374.875 251.022, 379.833 248.876 C 384.759 246.743, 390.037 246.437, 391.783 248.183 C 393.324 249.724, 394.344 248.658, 393.593 246.292 C 391.917 241.011, 380.805 239.450, 371.192 243.144 M 181.750 243.080 C 176.943 245.880, 182.496 254.416, 189.894 255.599 C 192.152 255.960, 194 256.627, 194 257.081 C 194 258.548, 186.682 259.990, 179.500 259.938 C 170.413 259.872, 165.608 258.264, 165.166 255.142 C 164.771 252.352, 169.011 247.465, 172.610 246.562 C 176.743 245.524, 175.211 244, 170.035 244 C 158.850 244, 152.670 256.335, 159.820 264.389 C 165.867 271.202, 183.717 271.856, 195.615 265.700 C 198.989 263.954, 202.366 258.117, 201.423 255.659 C 201.032 254.641, 201.860 253.606, 203.919 252.542 C 208.060 250.401, 207.836 248.930, 203.570 250.240 C 200.397 251.214, 199.900 251.054, 196.960 248.114 C 191.856 243.010, 185.489 240.902, 181.750 243.080 M 185 248.474 C 185 248.735, 186.463 249.657, 188.250 250.524 L 191.500 252.099 189.139 250.049 C 186.927 248.129, 185 247.396, 185 248.474 M 113 252.119 C 111.075 252.648, 105.225 254.223, 100 255.619 C 83.309 260.081, 70.867 265.045, 68.138 268.334 C 67.113 269.569, 67.464 270.244, 70.201 272.288 C 75.501 276.247, 80.619 277.476, 91.500 277.399 C 102.641 277.321, 109.501 275.318, 116.849 269.994 C 122.343 266.015, 124.110 260.150, 121.364 255.012 C 119.291 251.132, 118.098 250.719, 113 252.119 M 415.574 258.521 C 413.683 259.952, 413.690 260.068, 415.995 264.989 C 417.286 267.745, 418.706 270, 419.151 270 C 420.179 270, 424 262.573, 424 260.575 C 424 258.993, 421.051 256.978, 418.816 257.032 C 418.092 257.049, 416.633 257.719, 415.574 258.521 M 102.380 291.194 C 102.106 291.637, 102.413 292, 103.061 292 C 103.884 292, 104.109 293.813, 103.806 298 C 103.399 303.627, 103.507 304, 105.548 304 C 107.368 304, 107.646 303.551, 107.252 301.250 L 106.782 298.500 109.432 301.250 C 110.889 302.762, 113.058 304, 114.253 304 C 116.201 304, 116.080 303.712, 113.076 301.205 C 110.044 298.673, 109.853 298.209, 111.054 296.286 C 112.104 294.604, 112.125 293.856, 111.155 292.687 C 109.798 291.052, 103.165 289.923, 102.380 291.194 M 165.750 291.080 C 163.183 292.575, 163.614 295.762, 166.750 298.475 C 169.268 300.653, 169.344 300.914, 167.649 301.572 C 166.496 302.020, 165.480 301.776, 164.953 300.925 C 163.871 299.174, 162.563 300.420, 163.345 302.457 C 164.048 304.288, 168.097 304.503, 169.800 302.800 C 171.745 300.855, 171.186 298.292, 168.329 296.044 C 166.164 294.341, 165.903 293.711, 166.954 292.721 C 167.975 291.759, 168.347 291.765, 168.708 292.750 C 169.329 294.443, 171 294.339, 171 292.607 C 171 291.841, 170.288 290.941, 169.418 290.607 C 167.527 289.881, 167.888 289.835, 165.750 291.080 M 260.485 295.964 C 260.498 300.923, 260.269 301.533, 258.285 301.815 C 255.736 302.177, 254.482 298.981, 255.215 293.987 C 255.586 291.462, 255.321 291, 253.506 291 C 251.515 291, 251.405 291.358, 251.990 295.919 C 252.757 301.898, 254.343 304, 258.087 304 C 261.523 304, 262.586 302.227, 263.205 295.464 C 263.583 291.326, 263.381 290.429, 262.067 290.429 C 260.794 290.429, 260.473 291.553, 260.485 295.964 M 285.500 297.213 C 285.500 303.596, 285.634 303.995, 287.769 303.998 C 289.690 304, 289.942 303.617, 289.411 301.500 C 289.066 300.125, 289.105 299, 289.498 299 C 289.891 299, 291.097 300.125, 292.179 301.500 C 293.260 302.875, 295.047 304, 296.150 304 C 297.913 304, 297.776 303.622, 295.006 300.853 C 292.892 298.738, 292.239 297.470, 293.017 296.989 C 293.654 296.596, 294.023 295.200, 293.837 293.887 C 293.562 291.938, 292.767 291.402, 289.500 290.965 L 285.500 290.430 285.500 297.213 M 356.715 294.880 L 357.155 299.500 353.041 295.250 C 350.779 292.913, 348.719 291, 348.464 291 C 348.209 291, 348 293.385, 348 296.300 C 348 299.215, 347.460 302.140, 346.800 302.800 C 345.867 303.733, 346.170 304, 348.166 304 C 350.610 304, 350.697 303.812, 350.007 300.041 C 349.355 296.471, 349.456 296.173, 351.034 297.018 C 351.997 297.533, 353.929 299.315, 355.328 300.977 C 356.726 302.640, 358.087 304, 358.350 304 C 358.614 304, 358.980 301.097, 359.165 297.549 C 359.439 292.271, 359.207 291.022, 357.887 290.678 C 356.532 290.326, 356.345 290.997, 356.715 294.880 M 134.500 297.545 L 134.500 304.091 138.422 303.795 C 140.580 303.633, 142.536 302.918, 142.770 302.206 C 143.079 301.269, 142.481 301.092, 140.598 301.565 C 138.384 302.121, 138 301.888, 138 299.992 C 138 298.259, 138.443 297.882, 140 298.290 C 141.300 298.630, 142 298.320, 142 297.406 C 142 296.633, 141.100 296, 140 296 C 138.825 296, 138 295.333, 138 294.383 C 138 293.259, 138.609 292.926, 140 293.290 C 141.300 293.630, 142 293.320, 142 292.406 C 142 291.448, 140.806 291, 138.250 291 L 134.500 291 134.500 297.545 M 190.710 291.623 C 189.191 293.142, 190.120 294.008, 192.600 293.385 C 195.198 292.733, 195.200 292.738, 194.850 298.368 L 194.500 304.003 197.450 304.001 C 199.744 304, 200.133 303.733, 199.200 302.800 C 198.540 302.140, 198 299.616, 198 297.192 C 198 292.944, 198.095 292.807, 200.598 293.435 C 202.481 293.908, 203.078 293.731, 202.769 292.794 C 202.307 291.394, 191.945 290.388, 190.710 291.623 M 223.598 295.667 C 222.723 298.234, 221.261 301.159, 220.349 302.167 C 218.782 303.899, 218.831 304, 221.234 304 C 223.043 304, 223.738 303.494, 223.639 302.250 C 223.430 299.622, 227.597 299.350, 228.276 301.948 C 228.578 303.104, 229.638 304, 230.703 304 C 232.437 304, 232.341 303.466, 229.546 297.521 C 227.871 293.957, 226.205 291.032, 225.844 291.021 C 225.483 291.009, 224.472 293.100, 223.598 295.667 M 317.366 297.500 C 314.342 303.994, 314.341 304, 316.576 304 C 318.320 304, 318.698 303.560, 318.290 302 C 317.865 300.376, 318.259 300, 320.383 300 C 322.333 300, 323 300.510, 323 302 C 323 303.482, 323.667 304, 325.573 304 C 328.140 304, 328.142 303.996, 326.272 301.618 C 325.241 300.308, 323.787 297.383, 323.039 295.118 C 322.291 292.853, 321.391 291, 321.037 291 C 320.683 291, 319.032 293.925, 317.366 297.500 M 380 292.361 C 380 293.293, 380.832 293.564, 382.636 293.219 L 385.271 292.715 384.803 298.357 C 384.348 303.852, 384.402 304, 386.868 304 C 388.837 304, 389.133 303.733, 388.200 302.800 C 387.540 302.140, 387 299.613, 387 297.183 C 387 293.012, 387.139 292.793, 389.500 293.245 C 391.176 293.565, 392 293.274, 392 292.361 C 392 291.364, 390.395 291, 386 291 C 381.605 291, 380 291.364, 380 292.361 M 107 295 C 107 296.100, 107.450 297, 108 297 C 108.550 297, 109 296.100, 109 295 C 109 293.900, 108.550 293, 108 293 C 107.450 293, 107 293.900, 107 295 M 289 295 C 289 296.289, 289.506 296.998, 290.250 296.750 C 290.938 296.521, 291.500 295.733, 291.500 295 C 291.500 294.267, 290.938 293.479, 290.250 293.250 C 289.506 293.002, 289 293.711, 289 295" stroke="none" fill="#f33b0f" fill-rule="evenodd"/></svg>